[
  {
    "pts_time": "8.333008",
    "duration_time": "0.033333"
  },
  {
    "pts_time": "8.366341",
    "duration_time": "0.033333"
  },
  {
    "pts_time": "8.399674",
    "duration_time": "0.033333"
  },
  {
    "pts_time": "8.433008",
    "duration_time": "0.033333"
  },
  {
    "pts_time": "8.466341",
    "duration_time": "0.033333"
  },
  {
    "pts_time": "8.499674",
    "duration_time": "0.033333"
  },
  {
    "pts_time": "8.533008",
    "duration_time": "0.033333"
  },
  {
    "pts_time": "8.566341",
    "duration_time": "0.033333"
  },
  {
    "pts_time": "8.599674",
    "duration_time": "0.033333"
  },
  {
    "pts_time": "8.633008",
    "duration_time": "0.033333"
  },
  {
    "pts_time": "8.666341",
    "duration_time": "0.033333"
  },
  {
    "pts_time": "8.699674",
    "duration_time": "0.033333"
  }
]
